<?xml version="1.0" ?><svg viewBox="0 0 64 64" xmlns="http://www.w3.org/2000/svg"><title/><g data-name="06-Wash hands" id="_06-Wash_hands"><polygon points="63 51 63 63 40.36 52.17 41 52 46 47 63 51" style="fill:#f2b59d"/><path d="M4,43.87a4.078,4.078,0,0,1-1.83-1.04A4.025,4.025,0,0,1,1,40a3,3,0,0,1,3-3H8l.03-.04,4.53,3.47a2.8,2.8,0,0,0,3.64-.22,2.714,2.714,0,0,0,.8-1.92v-.47A2,2,0,0,0,16,36l-3.99-3.15.03-.04,7.15,5.56A2.975,2.975,0,0,0,24,36.02v-.53a2.956,2.956,0,0,0-1.15-2.35L24,34a4.022,4.022,0,0,0,2.02,1A2.97,2.97,0,0,0,29,32.02v-.53a2.965,2.965,0,0,0-1.19-2.38L25,27h1V26a2.006,2.006,0,0,0-2-2H15.47a2.469,2.469,0,0,1-1.1-4.68l2.75-.96L21,17l3,.33L30,18l3.84,3.2L48,33H63V51L46,47l-5,5-.64.17L22.39,56.9a3.056,3.056,0,0,1-.79.1H19.3a3.142,3.142,0,0,1-2.22-.92L15,54H13.71a4.015,4.015,0,0,1-3.72-2.51L9,49H8.03a2.986,2.986,0,0,1-2.78-1.89L4,44Z" style="fill:#f2c4b2"/><path d="M33,16l1,5-.16.2L30,18l-6-.67V14.38a3.373,3.373,0,0,1,6.01-2.11Z" style="fill:#f2b59d"/><path d="M26,26v1H25l-3.28-2.46A2.7,2.7,0,0,0,20.1,24H24A2.006,2.006,0,0,1,26,26Z" style="fill:#ed9776"/><path d="M27.81,29.11,25,27l-3.28-2.46A2.7,2.7,0,0,0,20.1,24H18.69A2.684,2.684,0,0,0,16,26.69a2.887,2.887,0,0,0,.8,1.91l-.08-.06A2.7,2.7,0,0,0,15.1,28H13.69a2.687,2.687,0,0,0-1.65,4.81l7.15,5.56A2.975,2.975,0,0,0,24,36.02v-.53a2.956,2.956,0,0,0-1.15-2.35L24,34a4.022,4.022,0,0,0,2.02,1A2.97,2.97,0,0,0,29,32.02v-.53A2.965,2.965,0,0,0,27.81,29.11Z" style="fill:#f2b59d"/><polygon points="18 1 18 9 17 9 10 9 9 9 9 7 1 7 1 1 18 1" style="fill:#d4d4d4"/><path d="M17,37.82v.47a2.714,2.714,0,0,1-.8,1.92,2.8,2.8,0,0,1-3.64.22L8.03,36.96l-2.08-1.6a2.429,2.429,0,0,1-.89-1.37A2.505,2.505,0,0,1,5,33.44,2.458,2.458,0,0,1,7.48,31H8.79a2.487,2.487,0,0,1,1.49.49l1.73,1.36L16,36A2,2,0,0,1,17,37.82Z" style="fill:#f2b59d"/><path d="M29.81,32.11,29,31.5v.518A2.97,2.97,0,0,1,26.02,35,4.022,4.022,0,0,1,24,34l-1.15-.86A2.956,2.956,0,0,1,24,35.49V35.5l.81.607-.81-.6v.514a2.978,2.978,0,0,1-4.81,2.35l-6.18-4.806c0,.024,0,.047-.006.071L16,36a2,2,0,0,1,1,1.82v.292l4.19,3.258A2.975,2.975,0,0,0,26,39.02v-.53a2.956,2.956,0,0,0-1.15-2.35L26,37a4.022,4.022,0,0,0,2.02,1A2.97,2.97,0,0,0,31,35.02v-.53A2.965,2.965,0,0,0,29.81,32.11Z" style="fill:#f2b59d"/><path d="M18,39l-1-.789v.079a2.714,2.714,0,0,1-.8,1.92,2.8,2.8,0,0,1-3.64.22L8.03,36.96,8,37H7.063a2.432,2.432,0,0,0,.887,1.36l2.08,1.6,4.53,3.47a2.8,2.8,0,0,0,3.64-.22,2.714,2.714,0,0,0,.8-1.92v-.47A2,2,0,0,0,18,39Z" style="fill:#f2b59d"/><path d="M13,60.75c0,1.66-.9,2.25-2,2.25s-2-.59-2-2.25S11,57,11,57,13,59.09,13,60.75Z" style="fill:#96e0ff"/><path d="M10,59.75a5.1,5.1,0,0,1,1.1-2.638L11,57s-2,2.09-2,3.75S9.9,63,11,63a1.786,1.786,0,0,0,1.812-1.134A2.385,2.385,0,0,1,12,62C10.9,62,10,61.41,10,59.75Z" style="fill:#81d2f5"/><path d="M8.03,36.96,8,37H4a3,3,0,0,0-3,3V38a4,4,0,0,1,4-4l.06-.01a2.429,2.429,0,0,0,.89,1.37Z" style="fill:#ed9776"/><path d="M8,56a2.7,2.7,0,0,1-3,3,2.7,2.7,0,0,1-3-3c0-2.21,3-5,3-5S8,53.79,8,56Z" style="fill:#96e0ff"/><path d="M3,54a3.114,3.114,0,0,1,.118-.8A5.382,5.382,0,0,0,2,56a2.7,2.7,0,0,0,3,3,2.651,2.651,0,0,0,2.965-2.563A3.277,3.277,0,0,1,6,57,2.7,2.7,0,0,1,3,54Z" style="fill:#81d2f5"/><path d="M25.243,54.189a1,1,0,0,0,.757-.97V52l-8.66,1.87a1.851,1.851,0,0,1-.7.13H15l1.667,1.667L18,56Z" style="fill:#f2b59d"/><path d="M22.358,49.3A2,2,0,0,0,24,47.331V47L13,49H9l.8,2H13Z" style="fill:#f2b59d"/><path d="M19.027,44.329A2.361,2.361,0,0,0,21,42L8,44H5a3.657,3.657,0,0,1-1-.13V44l.8,2H9Z" style="fill:#f2b59d"/><path d="M49.564,50.754,63,54.706V51L46,47l-5,5-.64.17L47,55.346V52.673A2,2,0,0,1,49.564,50.754Z" style="fill:#ed9776"/><path d="M26.414,32.89l-7.574-5.3A1.971,1.971,0,0,1,18,25.974v0A1.97,1.97,0,0,1,19.97,24H18.69A2.684,2.684,0,0,0,16,26.69a2.887,2.887,0,0,0,.8,1.91l.01.01,6,4.5c.01.01.03.02.04.03L24,34a4.022,4.022,0,0,0,2.02,1,2.943,2.943,0,0,0,2.886-2.27A2,2,0,0,1,26.414,32.89Z" style="fill:#f2a283"/><path d="M14.414,38.89l-7.574-5.3A1.971,1.971,0,0,1,6,31.974v0a1.952,1.952,0,0,1,.087-.549A2.425,2.425,0,0,0,5,33.44a2.505,2.505,0,0,0,.06.55,2.429,2.429,0,0,0,.89,1.37l2.08,1.6,4.53,3.47a2.8,2.8,0,0,0,3.64-.22,2.72,2.72,0,0,0,.761-1.54A2,2,0,0,1,14.414,38.89Z" style="fill:#f2a283"/><path d="M21.414,36.89l-8.574-6.3A1.971,1.971,0,0,1,12,28.974v0a1.966,1.966,0,0,1,.039-.386,2.661,2.661,0,0,0-.579.6,2.691,2.691,0,0,0,.58,3.63l7.15,5.56a2.96,2.96,0,0,0,4.716-1.64A2,2,0,0,1,21.414,36.89Z" style="fill:#f2a283"/><path d="M63,33H59v7.838a3,3,0,0,1-3.949,2.846l-2.28-.76A5.2,5.2,0,0,0,46,47h0l17,4Z" style="fill:#f2b59d"/><path d="M24,22H15a2,2,0,0,1-1.855-1.262A2.416,2.416,0,0,0,13,21.53,2.475,2.475,0,0,0,15.47,24H24a2.006,2.006,0,0,1,2,2V24A2,2,0,0,0,24,22Z" style="fill:#f2b59d"/><path d="M18.69,24H17v.61A2.665,2.665,0,0,1,18.69,24Z" style="fill:#81d2f5"/><path d="M12.01,32.85l.03-.04A2.686,2.686,0,0,1,13.69,28H15.1a2.7,2.7,0,0,1,1.62.54l.08.06a2.887,2.887,0,0,1-.8-1.91,2.671,2.671,0,0,1,1-2.08V24H15.47a2.469,2.469,0,0,1-1.1-4.68L17,18.4V9H10V31.315a2.469,2.469,0,0,1,.28.175Z" style="fill:#96e0ff"/><path d="M3,1V3A2,2,0,0,0,5,5H9V7H1V1Z" style="fill:#bfbfbf"/><rect height="1" style="fill:#bfbfbf" width="9" x="9" y="8"/><path d="M14,11h3V9H10V31.315a2.469,2.469,0,0,1,.28.175l1.73,1.36.03-.04a2.644,2.644,0,0,1-.04-4.2V13A2,2,0,0,1,14,11Z" style="fill:#81d2f5"/><rect height="6" rx="1" style="fill:#b3f5ff" width="2" x="14" y="12"/><rect height="3" rx="1" style="fill:#b3f5ff" width="2" x="14" y="24"/><rect height="3" rx="1" style="fill:#b3f5ff" width="2" x="12" y="17"/><path d="M6.3,55.991c.357.082.555-.429.541-.755A1.186,1.186,0,0,0,6.2,54.129a1.421,1.421,0,0,0-.9-.1.665.665,0,0,0-.345.154.388.388,0,0,0-.107.384.537.537,0,0,0,.139.193l1.019,1.031A.637.637,0,0,0,6.3,55.991Z" style="fill:#fff"/><path d="M12.066,61.5c.178.041.277-.215.271-.378a.594.594,0,0,0-.317-.553.716.716,0,0,0-.449-.05.333.333,0,0,0-.172.077.193.193,0,0,0-.054.192.26.26,0,0,0,.07.1l.509.515A.32.32,0,0,0,12.066,61.5Z" style="fill:#fff"/></g></svg>