<?xml version="1.0" encoding="iso-8859-1"?>
<!-- Generator: Adobe Illustrator 15.0.0, SVG Export Plug-In . SVG Version: 6.00 Build 0)  -->
<!DOCTYPE svg PUBLIC "-//W3C//DTD SVG 1.1//EN" "http://www.w3.org/Graphics/SVG/1.1/DTD/svg11.dtd">
<svg version="1.1" id="Layer_1" xmlns="http://www.w3.org/2000/svg" xmlns:xlink="http://www.w3.org/1999/xlink" x="0px" y="0px"
	 width="128px" height="128px" viewBox="0 0 128 128" style="enable-background:new 0 0 128 128;" xml:space="preserve">
<g>
	<circle style="fill:#F2CF61;" cx="64" cy="64" r="64"/>
	<path style="fill:#FFFFFF;" d="M96.953,45h-66c-2.2,0-4,1.8-4,4v67.171C37.41,123.609,50.188,128,64,128
		c13.77,0,26.514-4.363,36.953-11.764V49C100.953,46.8,99.152,45,96.953,45z"/>
	<path style="fill:#E6E6E6;" d="M96.953,45h-3c2.199,0,4,1.8,4,4v67.236c-10.059,7.13-22.26,11.429-35.451,11.733
		C63.001,127.982,63.498,128,64,128c13.77,0,26.514-4.363,36.953-11.764V49C100.953,46.8,99.152,45,96.953,45z"/>
	<path style="fill:#FFFFFF;" d="M73.953,45c0,2.2-1.801,4-4,4h-12c-2.2,0-4-1.8-4-4V34c0-2.2,1.8-4,4-4h12c2.199,0,4,1.8,4,4V45z"/>
	<path style="fill:#CC584C;" d="M59.953,43c-0.553,0-1-0.448-1-1v-8c0-0.552,0.447-1,1-1c0.553,0,1,0.448,1,1v8
		C60.953,42.552,60.506,43,59.953,43z"/>
	<path style="fill:#CC584C;" d="M67.953,43c-0.553,0-1-0.448-1-1v-8c0-0.552,0.447-1,1-1s1,0.448,1,1v8
		C68.953,42.552,68.506,43,67.953,43z"/>
	<path style="fill:#CC584C;" d="M67.953,39h-8c-0.553,0-1-0.448-1-1s0.447-1,1-1h8c0.553,0,1,0.448,1,1S68.506,39,67.953,39z"/>
	<rect x="53.953" y="44" style="fill:#E6E6E6;" width="20" height="1"/>
	<g>
		<rect x="35.953" y="59" style="fill:#B8D6E6;" width="16" height="20"/>
		<rect x="36.953" y="60" style="fill:#C2E2F2;" width="14" height="18"/>
		<rect x="55.953" y="59" style="fill:#B8D6E6;" width="16" height="20"/>
		<rect x="56.953" y="60" style="fill:#C2E2F2;" width="14" height="18"/>
		<rect x="75.953" y="59" style="fill:#B8D6E6;" width="16" height="20"/>
		<rect x="76.953" y="60" style="fill:#C2E2F2;" width="14" height="18"/>
	</g>
	<g>
		<rect x="35.953" y="83" style="fill:#B8D6E6;" width="16" height="20"/>
		<rect x="36.953" y="84" style="fill:#C2E2F2;" width="14" height="18"/>
		<rect x="55.953" y="83" style="fill:#B8D6E6;" width="16" height="20"/>
		<rect x="56.953" y="84" style="fill:#C2E2F2;" width="14" height="18"/>
		<rect x="75.953" y="83" style="fill:#B8D6E6;" width="16" height="20"/>
		<rect x="76.953" y="84" style="fill:#C2E2F2;" width="14" height="18"/>
	</g>
	<path style="fill:#1E9969;" d="M29.953,96c-6.627,0-12,5.373-12,12c0,0.15,0.018,0.298,0.021,0.447
		c4.27,4.418,9.164,8.222,14.549,11.27c5.391-1.177,9.43-5.973,9.43-11.717C41.953,101.373,36.58,96,29.953,96z"/>
	<path style="fill:#1B8C60;" d="M29.953,96c-0.509,0-1.008,0.042-1.5,0.104c5.918,0.739,10.5,5.778,10.5,11.896
		c0,5.021-3.087,9.316-7.465,11.105c0.345,0.205,0.686,0.414,1.035,0.611c5.391-1.177,9.43-5.973,9.43-11.717
		C41.953,101.373,36.58,96,29.953,96z"/>
	<path style="fill:#1E9969;" d="M111.674,106.688c-0.97-4.084-4.432-7.201-8.695-7.635C101.156,96.598,98.245,95,94.953,95
		c-5.521,0-10,4.477-10,10c0,0.613,0.063,1.21,0.169,1.792c-1.354,1.707-2.169,3.86-2.169,6.208c0,4.458,2.92,8.232,6.949,9.521
		C98.25,118.822,105.66,113.396,111.674,106.688z"/>
	<path style="fill:#1B8C60;" d="M102.979,99.052C101.156,96.598,98.245,95,94.953,95c-0.699,0-1.383,0.073-2.041,0.21
		c2.473,0.495,4.615,1.89,6.066,3.842c3.088,0.314,5.617,2.132,7.356,4.513c0.867,1.186-0.065,4.86-1.259,5.852
		c-5.314,4.418-10.819,9.076-17.227,12.18c0.642,0.381,1.326,0.696,2.051,0.928c8.348-3.701,15.758-9.125,21.771-15.836
		C110.704,102.604,107.242,99.486,102.979,99.052z"/>
	<path style="fill:#1A1A1A;" d="M53.953,127.209C57.227,127.725,60.581,128,64,128c3.04,0,6.025-0.227,8.953-0.637V109h-19V127.209z
		"/>
	<path style="fill:#242424;" d="M54.953,127.352C57.91,127.77,60.928,128,64,128c2.695,0,5.346-0.186,7.953-0.51V110h-17V127.352z"
		/>
</g>
</svg>
